<svg width="207" height="207" viewBox="0 0 207 207" fill="none" xmlns="http://www.w3.org/2000/svg">
<rect width="207" height="207" rx="17" fill="#EFF5F7"/>
<circle cx="103.5" cy="103.5" r="76" fill="white" stroke="#062D47" stroke-width="5"/>
<rect x="123" y="127" width="6" height="6" rx="1" fill="#C2D9E8"/>
<rect x="112" y="127" width="6" height="6" rx="1" fill="#082E43"/>
<rect x="101" y="127" width="6" height="6" rx="1" fill="#C2D9E8"/>
<rect x="90" y="127" width="6" height="6" rx="1" fill="#082E43"/>
<rect x="79" y="127" width="6" height="6" rx="1" fill="#C2D9E8"/>
<rect x="112" y="117" width="6" height="6" rx="1" fill="#C2D9E8"/>
<rect x="90" y="117" width="6" height="6" rx="1" fill="#C2D9E8"/>
<g filter="url(#filter0_d_2_30)">
<path d="M139.125 58.5H124.875V51.375C124.875 50.7451 124.625 50.141 124.179 49.6956C123.734 49.2502 123.13 49 122.5 49C121.87 49 121.266 49.2502 120.821 49.6956C120.375 50.141 120.125 50.7451 120.125 51.375V58.5H86.875V51.375C86.875 50.7451 86.6248 50.141 86.1794 49.6956C85.734 49.2502 85.1299 49 84.5 49C83.8701 49 83.266 49.2502 82.8206 49.6956C82.3752 50.141 82.125 50.7451 82.125 51.375V58.5H67.875C64.7267 58.5038 61.7084 59.7561 59.4823 61.9823C57.2561 64.2085 56.0038 67.2267 56 70.375V132.125C56.0038 135.273 57.2561 138.292 59.4823 140.518C61.7084 142.744 64.7267 143.996 67.875 144H139.125C142.274 143.997 145.293 142.746 147.519 140.519C149.746 138.293 150.997 135.274 151 132.125V70.375C150.997 67.2263 149.746 64.2073 147.519 61.9809C145.293 59.7544 142.274 58.5025 139.125 58.5ZM146.25 132.125C146.25 134.015 145.499 135.827 144.163 137.163C142.827 138.499 141.015 139.25 139.125 139.25H67.875C65.9853 139.25 64.1731 138.499 62.8369 137.163C61.5007 135.827 60.75 134.015 60.75 132.125V91.75H146.25V132.125ZM146.25 87H60.75V70.375C60.75 66.442 63.9325 63.25 67.875 63.25H82.125V70.375C82.125 71.0049 82.3752 71.609 82.8206 72.0544C83.266 72.4998 83.8701 72.75 84.5 72.75C85.1299 72.75 85.734 72.4998 86.1794 72.0544C86.6248 71.609 86.875 71.0049 86.875 70.375V63.25H120.125V70.375C120.125 71.0049 120.375 71.609 120.821 72.0544C121.266 72.4998 121.87 72.75 122.5 72.75C123.13 72.75 123.734 72.4998 124.179 72.0544C124.625 71.609 124.875 71.0049 124.875 70.375V63.25H139.125C141.015 63.25 142.827 64.0007 144.163 65.3369C145.499 66.6731 146.25 68.4853 146.25 70.375V87Z" fill="#082E43"/>
</g>
<path d="M81.352 111V100.76L82.472 101.88H79.112V99.8H83.944V111H81.352ZM96.5649 111.192C95.6795 111.192 94.8582 111.048 94.1009 110.76C93.3542 110.472 92.7035 110.067 92.1489 109.544C91.6049 109.021 91.1782 108.408 90.8689 107.704C90.5702 107 90.4209 106.232 90.4209 105.4C90.4209 104.568 90.5702 103.8 90.8689 103.096C91.1782 102.392 91.6102 101.779 92.1649 101.256C92.7195 100.733 93.3702 100.328 94.1169 100.04C94.8635 99.752 95.6742 99.608 96.5489 99.608C97.4342 99.608 98.2449 99.752 98.9809 100.04C99.7275 100.328 100.373 100.733 100.917 101.256C101.472 101.779 101.904 102.392 102.213 103.096C102.522 103.789 102.677 104.557 102.677 105.4C102.677 106.232 102.522 107.005 102.213 107.72C101.904 108.424 101.472 109.037 100.917 109.56C100.373 110.072 99.7275 110.472 98.9809 110.76C98.2449 111.048 97.4395 111.192 96.5649 111.192ZM96.5489 108.984C97.0502 108.984 97.5089 108.899 97.9249 108.728C98.3515 108.557 98.7249 108.312 99.0449 107.992C99.3649 107.672 99.6102 107.293 99.7809 106.856C99.9622 106.419 100.053 105.933 100.053 105.4C100.053 104.867 99.9622 104.381 99.7809 103.944C99.6102 103.507 99.3649 103.128 99.0449 102.808C98.7355 102.488 98.3675 102.243 97.9409 102.072C97.5142 101.901 97.0502 101.816 96.5489 101.816C96.0475 101.816 95.5835 101.901 95.1569 102.072C94.7409 102.243 94.3729 102.488 94.0529 102.808C93.7329 103.128 93.4822 103.507 93.3009 103.944C93.1302 104.381 93.0449 104.867 93.0449 105.4C93.0449 105.923 93.1302 106.408 93.3009 106.856C93.4822 107.293 93.7275 107.672 94.0369 107.992C94.3569 108.312 94.7302 108.557 95.1569 108.728C95.5835 108.899 96.0475 108.984 96.5489 108.984ZM104.625 111V99.8H106.769L113.377 107.864H112.337V99.8H114.897V111H112.769L106.145 102.936H107.185V111H104.625ZM123.102 111V100.76L124.222 101.88H120.862V99.8H125.694V111H123.102Z" fill="black"/>
<rect x="101" y="117" width="6" height="6" rx="1" fill="#082E43"/>
<rect x="123" y="117" width="6" height="6" rx="1" fill="#082E43"/>
<rect x="79" y="117" width="6" height="6" rx="1" fill="#082E43"/>
<defs>
<filter id="filter0_d_2_30" x="52" y="49" width="103" height="103" filterUnits="userSpaceOnUse" color-interpolation-filters="sRGB">
<feFlood flood-opacity="0" result="BackgroundImageFix"/>
<feColorMatrix in="SourceAlpha" type="matrix" values="0 0 0 0 0 0 0 0 0 0 0 0 0 0 0 0 0 0 127 0" result="hardAlpha"/>
<feOffset dy="4"/>
<feGaussianBlur stdDeviation="2"/>
<feComposite in2="hardAlpha" operator="out"/>
<feColorMatrix type="matrix" values="0 0 0 0 0.807843 0 0 0 0 0.894118 0 0 0 0 0.945098 0 0 0 1 0"/>
<feBlend mode="normal" in2="BackgroundImageFix" result="effect1_dropShadow_2_30"/>
<feBlend mode="normal" in="SourceGraphic" in2="effect1_dropShadow_2_30" result="shape"/>
</filter>
</defs>
</svg>
